<mxfile host="app.diagrams.net" modified="2024-03-11T15:32:16.437Z" agent="Mozilla/5.0 (Windows NT 10.0; Win64; x64) AppleWebKit/537.36 (KHTML, like Gecko) Chrome/122.0.0.0 Safari/537.36" etag="GMHV4PQel3P__p9RsiTL" version="24.0.4" type="device">
  <diagram name="Page-1" id="9s5GCkxWtqoZ3vEaBcoy">
    <mxGraphModel dx="1384" dy="567" grid="1" gridSize="10" guides="1" tooltips="1" connect="1" arrows="1" fold="1" page="1" pageScale="1" pageWidth="850" pageHeight="1100" math="0" shadow="0">
      <root>
        <mxCell id="0" />
        <mxCell id="1" parent="0" />
        <mxCell id="OVGygfQGy09wL51Iu5K0-1" value="Группы людей" style="rounded=1;whiteSpace=wrap;html=1;" vertex="1" parent="1">
          <mxGeometry x="630" y="420" width="120" height="30" as="geometry" />
        </mxCell>
        <mxCell id="OVGygfQGy09wL51Iu5K0-2" value="" style="endArrow=none;html=1;rounded=0;exitX=0.5;exitY=0;exitDx=0;exitDy=0;" edge="1" parent="1" source="OVGygfQGy09wL51Iu5K0-1" target="OVGygfQGy09wL51Iu5K0-3">
          <mxGeometry width="50" height="50" relative="1" as="geometry">
            <mxPoint x="455" y="540" as="sourcePoint" />
            <mxPoint x="505" y="490" as="targetPoint" />
          </mxGeometry>
        </mxCell>
        <mxCell id="OVGygfQGy09wL51Iu5K0-3" value="Название" style="ellipse;whiteSpace=wrap;html=1;" vertex="1" parent="1">
          <mxGeometry x="560" y="330" width="120" height="50" as="geometry" />
        </mxCell>
        <mxCell id="OVGygfQGy09wL51Iu5K0-6" value="Средний возраст" style="ellipse;whiteSpace=wrap;html=1;" vertex="1" parent="1">
          <mxGeometry x="690" y="330" width="120" height="50" as="geometry" />
        </mxCell>
        <mxCell id="OVGygfQGy09wL51Iu5K0-7" value="" style="endArrow=none;html=1;rounded=0;entryX=0.5;entryY=0;entryDx=0;entryDy=0;" edge="1" parent="1" source="OVGygfQGy09wL51Iu5K0-6" target="OVGygfQGy09wL51Iu5K0-1">
          <mxGeometry width="50" height="50" relative="1" as="geometry">
            <mxPoint x="499" y="478" as="sourcePoint" />
            <mxPoint x="430" y="540" as="targetPoint" />
          </mxGeometry>
        </mxCell>
        <mxCell id="OVGygfQGy09wL51Iu5K0-8" value="Предметы" style="rounded=1;whiteSpace=wrap;html=1;" vertex="1" parent="1">
          <mxGeometry x="922.63" y="565" width="120" height="30" as="geometry" />
        </mxCell>
        <mxCell id="OVGygfQGy09wL51Iu5K0-9" value="" style="endArrow=none;html=1;rounded=0;exitX=0.75;exitY=1;exitDx=0;exitDy=0;" edge="1" target="OVGygfQGy09wL51Iu5K0-10" parent="1" source="OVGygfQGy09wL51Iu5K0-8">
          <mxGeometry width="50" height="50" relative="1" as="geometry">
            <mxPoint x="1052.63" y="585" as="sourcePoint" />
            <mxPoint x="167.63" y="945" as="targetPoint" />
          </mxGeometry>
        </mxCell>
        <mxCell id="OVGygfQGy09wL51Iu5K0-10" value="Происхождение" style="ellipse;whiteSpace=wrap;html=1;" vertex="1" parent="1">
          <mxGeometry x="962.6300000000001" y="685" width="120" height="50" as="geometry" />
        </mxCell>
        <mxCell id="OVGygfQGy09wL51Iu5K0-11" value="Наименование" style="ellipse;whiteSpace=wrap;html=1;" vertex="1" parent="1">
          <mxGeometry x="1132.63" y="635" width="120" height="50" as="geometry" />
        </mxCell>
        <mxCell id="OVGygfQGy09wL51Iu5K0-12" value="" style="endArrow=none;html=1;rounded=0;entryX=0.924;entryY=1.006;entryDx=0;entryDy=0;entryPerimeter=0;" edge="1" source="OVGygfQGy09wL51Iu5K0-11" target="OVGygfQGy09wL51Iu5K0-8" parent="1">
          <mxGeometry width="50" height="50" relative="1" as="geometry">
            <mxPoint x="161.63" y="933" as="sourcePoint" />
            <mxPoint x="92.63" y="995" as="targetPoint" />
          </mxGeometry>
        </mxCell>
        <mxCell id="OVGygfQGy09wL51Iu5K0-13" value="Локация" style="rounded=1;whiteSpace=wrap;html=1;" vertex="1" parent="1">
          <mxGeometry x="360" y="565" width="120" height="30" as="geometry" />
        </mxCell>
        <mxCell id="OVGygfQGy09wL51Iu5K0-14" value="" style="endArrow=none;html=1;rounded=0;exitX=0.5;exitY=0;exitDx=0;exitDy=0;" edge="1" target="OVGygfQGy09wL51Iu5K0-15" parent="1" source="OVGygfQGy09wL51Iu5K0-13">
          <mxGeometry width="50" height="50" relative="1" as="geometry">
            <mxPoint x="785" y="1005" as="sourcePoint" />
            <mxPoint x="835" y="955" as="targetPoint" />
          </mxGeometry>
        </mxCell>
        <mxCell id="OVGygfQGy09wL51Iu5K0-15" value="Возраст" style="ellipse;whiteSpace=wrap;html=1;" vertex="1" parent="1">
          <mxGeometry x="280" y="475" width="120" height="50" as="geometry" />
        </mxCell>
        <mxCell id="OVGygfQGy09wL51Iu5K0-16" value="Наименование" style="ellipse;whiteSpace=wrap;html=1;" vertex="1" parent="1">
          <mxGeometry x="440" y="475" width="120" height="50" as="geometry" />
        </mxCell>
        <mxCell id="OVGygfQGy09wL51Iu5K0-17" value="" style="endArrow=none;html=1;rounded=0;entryX=0.5;entryY=0;entryDx=0;entryDy=0;" edge="1" source="OVGygfQGy09wL51Iu5K0-16" target="OVGygfQGy09wL51Iu5K0-13" parent="1">
          <mxGeometry width="50" height="50" relative="1" as="geometry">
            <mxPoint x="829" y="943" as="sourcePoint" />
            <mxPoint x="760" y="1005" as="targetPoint" />
          </mxGeometry>
        </mxCell>
        <mxCell id="OVGygfQGy09wL51Iu5K0-18" value="Действия" style="rounded=1;whiteSpace=wrap;html=1;" vertex="1" parent="1">
          <mxGeometry x="1073.5" y="420" width="120" height="30" as="geometry" />
        </mxCell>
        <mxCell id="OVGygfQGy09wL51Iu5K0-19" value="" style="endArrow=none;html=1;rounded=0;exitX=1;exitY=0.5;exitDx=0;exitDy=0;" edge="1" parent="1" target="OVGygfQGy09wL51Iu5K0-20" source="OVGygfQGy09wL51Iu5K0-18">
          <mxGeometry width="50" height="50" relative="1" as="geometry">
            <mxPoint x="978.5000000000001" y="540" as="sourcePoint" />
            <mxPoint x="1028.5" y="490" as="targetPoint" />
          </mxGeometry>
        </mxCell>
        <mxCell id="OVGygfQGy09wL51Iu5K0-20" value="Субъект" style="ellipse;whiteSpace=wrap;html=1;" vertex="1" parent="1">
          <mxGeometry x="1363.5" y="410" width="120" height="50" as="geometry" />
        </mxCell>
        <mxCell id="OVGygfQGy09wL51Iu5K0-21" value="Объект" style="ellipse;whiteSpace=wrap;html=1;" vertex="1" parent="1">
          <mxGeometry x="1273.5" y="340" width="120" height="50" as="geometry" />
        </mxCell>
        <mxCell id="OVGygfQGy09wL51Iu5K0-22" value="" style="endArrow=none;html=1;rounded=0;entryX=1;entryY=0.5;entryDx=0;entryDy=0;" edge="1" parent="1" source="OVGygfQGy09wL51Iu5K0-21" target="OVGygfQGy09wL51Iu5K0-18">
          <mxGeometry width="50" height="50" relative="1" as="geometry">
            <mxPoint x="1022.5000000000001" y="478" as="sourcePoint" />
            <mxPoint x="953.5" y="540" as="targetPoint" />
          </mxGeometry>
        </mxCell>
        <mxCell id="OVGygfQGy09wL51Iu5K0-23" value="" style="endArrow=none;html=1;rounded=0;exitX=1;exitY=0.5;exitDx=0;exitDy=0;" edge="1" parent="1" target="OVGygfQGy09wL51Iu5K0-24" source="OVGygfQGy09wL51Iu5K0-18">
          <mxGeometry width="50" height="50" relative="1" as="geometry">
            <mxPoint x="1063.5" y="640" as="sourcePoint" />
            <mxPoint x="1113.5" y="590" as="targetPoint" />
          </mxGeometry>
        </mxCell>
        <mxCell id="OVGygfQGy09wL51Iu5K0-24" value="Вид действия" style="ellipse;whiteSpace=wrap;html=1;" vertex="1" parent="1">
          <mxGeometry x="1273.5" y="490" width="120" height="50" as="geometry" />
        </mxCell>
        <mxCell id="OVGygfQGy09wL51Iu5K0-25" value="" style="endArrow=none;html=1;rounded=0;exitX=0.5;exitY=1;exitDx=0;exitDy=0;entryX=0.5;entryY=0;entryDx=0;entryDy=0;" edge="1" parent="1" source="OVGygfQGy09wL51Iu5K0-1" target="OVGygfQGy09wL51Iu5K0-26">
          <mxGeometry width="50" height="50" relative="1" as="geometry">
            <mxPoint x="670" y="590" as="sourcePoint" />
            <mxPoint x="620" y="555" as="targetPoint" />
          </mxGeometry>
        </mxCell>
        <mxCell id="OVGygfQGy09wL51Iu5K0-28" value="М" style="edgeLabel;html=1;align=center;verticalAlign=middle;resizable=0;points=[];" vertex="1" connectable="0" parent="OVGygfQGy09wL51Iu5K0-25">
          <mxGeometry x="-0.6979" relative="1" as="geometry">
            <mxPoint as="offset" />
          </mxGeometry>
        </mxCell>
        <mxCell id="OVGygfQGy09wL51Iu5K0-26" value="Содержит" style="rhombus;whiteSpace=wrap;html=1;" vertex="1" parent="1">
          <mxGeometry x="635" y="540" width="110" height="80" as="geometry" />
        </mxCell>
        <mxCell id="OVGygfQGy09wL51Iu5K0-27" value="" style="endArrow=none;html=1;rounded=0;exitX=1;exitY=0.5;exitDx=0;exitDy=0;entryX=0;entryY=0.5;entryDx=0;entryDy=0;" edge="1" parent="1" source="OVGygfQGy09wL51Iu5K0-32" target="OVGygfQGy09wL51Iu5K0-18">
          <mxGeometry width="50" height="50" relative="1" as="geometry">
            <mxPoint x="730" y="550" as="sourcePoint" />
            <mxPoint x="780" y="500" as="targetPoint" />
          </mxGeometry>
        </mxCell>
        <mxCell id="OVGygfQGy09wL51Iu5K0-29" value="М" style="edgeLabel;html=1;align=center;verticalAlign=middle;resizable=0;points=[];" vertex="1" connectable="0" parent="OVGygfQGy09wL51Iu5K0-27">
          <mxGeometry x="0.6241" relative="1" as="geometry">
            <mxPoint as="offset" />
          </mxGeometry>
        </mxCell>
        <mxCell id="OVGygfQGy09wL51Iu5K0-30" value="Навигация" style="rounded=1;whiteSpace=wrap;html=1;" vertex="1" parent="1">
          <mxGeometry x="630" y="740" width="120" height="30" as="geometry" />
        </mxCell>
        <mxCell id="OVGygfQGy09wL51Iu5K0-31" value="" style="endArrow=none;html=1;rounded=0;entryX=0.5;entryY=1;entryDx=0;entryDy=0;exitX=0.5;exitY=0;exitDx=0;exitDy=0;" edge="1" parent="1" source="OVGygfQGy09wL51Iu5K0-30" target="OVGygfQGy09wL51Iu5K0-26">
          <mxGeometry width="50" height="50" relative="1" as="geometry">
            <mxPoint x="640" y="660" as="sourcePoint" />
            <mxPoint x="690" y="610" as="targetPoint" />
          </mxGeometry>
        </mxCell>
        <mxCell id="OVGygfQGy09wL51Iu5K0-41" value="1" style="edgeLabel;html=1;align=center;verticalAlign=middle;resizable=0;points=[];" vertex="1" connectable="0" parent="OVGygfQGy09wL51Iu5K0-31">
          <mxGeometry x="-0.7081" relative="1" as="geometry">
            <mxPoint as="offset" />
          </mxGeometry>
        </mxCell>
        <mxCell id="OVGygfQGy09wL51Iu5K0-33" value="" style="endArrow=none;html=1;rounded=0;exitX=1;exitY=0.5;exitDx=0;exitDy=0;entryX=0;entryY=0.5;entryDx=0;entryDy=0;" edge="1" parent="1" source="OVGygfQGy09wL51Iu5K0-1" target="OVGygfQGy09wL51Iu5K0-32">
          <mxGeometry width="50" height="50" relative="1" as="geometry">
            <mxPoint x="750" y="435" as="sourcePoint" />
            <mxPoint x="1133" y="435" as="targetPoint" />
          </mxGeometry>
        </mxCell>
        <mxCell id="OVGygfQGy09wL51Iu5K0-35" value="М" style="edgeLabel;html=1;align=center;verticalAlign=middle;resizable=0;points=[];" vertex="1" connectable="0" parent="OVGygfQGy09wL51Iu5K0-33">
          <mxGeometry x="-0.8052" y="1" relative="1" as="geometry">
            <mxPoint as="offset" />
          </mxGeometry>
        </mxCell>
        <mxCell id="OVGygfQGy09wL51Iu5K0-32" value="Содержит" style="rhombus;whiteSpace=wrap;html=1;" vertex="1" parent="1">
          <mxGeometry x="860" y="395" width="110" height="80" as="geometry" />
        </mxCell>
        <mxCell id="OVGygfQGy09wL51Iu5K0-36" value="" style="endArrow=none;html=1;rounded=0;entryX=0;entryY=0.5;entryDx=0;entryDy=0;exitX=1;exitY=0.5;exitDx=0;exitDy=0;" edge="1" parent="1" source="OVGygfQGy09wL51Iu5K0-13" target="OVGygfQGy09wL51Iu5K0-26">
          <mxGeometry width="50" height="50" relative="1" as="geometry">
            <mxPoint x="480" y="590" as="sourcePoint" />
            <mxPoint x="530" y="540" as="targetPoint" />
          </mxGeometry>
        </mxCell>
        <mxCell id="OVGygfQGy09wL51Iu5K0-39" value="М" style="edgeLabel;html=1;align=center;verticalAlign=middle;resizable=0;points=[];" vertex="1" connectable="0" parent="OVGygfQGy09wL51Iu5K0-36">
          <mxGeometry x="-0.8229" relative="1" as="geometry">
            <mxPoint as="offset" />
          </mxGeometry>
        </mxCell>
        <mxCell id="OVGygfQGy09wL51Iu5K0-37" value="" style="endArrow=none;html=1;rounded=0;entryX=0;entryY=0.5;entryDx=0;entryDy=0;exitX=1;exitY=0.5;exitDx=0;exitDy=0;" edge="1" parent="1" source="OVGygfQGy09wL51Iu5K0-26" target="OVGygfQGy09wL51Iu5K0-8">
          <mxGeometry width="50" height="50" relative="1" as="geometry">
            <mxPoint x="870" y="590" as="sourcePoint" />
            <mxPoint x="920" y="540" as="targetPoint" />
          </mxGeometry>
        </mxCell>
        <mxCell id="OVGygfQGy09wL51Iu5K0-40" value="М" style="edgeLabel;html=1;align=center;verticalAlign=middle;resizable=0;points=[];" vertex="1" connectable="0" parent="OVGygfQGy09wL51Iu5K0-37">
          <mxGeometry x="0.8644" y="2" relative="1" as="geometry">
            <mxPoint as="offset" />
          </mxGeometry>
        </mxCell>
      </root>
    </mxGraphModel>
  </diagram>
</mxfile>
